<svg id="Layer_1" data-name="Layer 1" xmlns="http://www.w3.org/2000/svg" viewBox="0 0 2000 2000"><defs><style>.cls-1{fill:#fcb4c5;}</style></defs><path class="cls-1" d="M628.17,558.33s-113.49-261.9,142.59-227,346.29-3.21,346.29-3.21,177.51-52.08,224.07,11.94S1411,500.13,1379,572.88s78.57,224.07,55.29,293.91-61.11,218.25-37.83,279.36,55.29,264.81,26.19,314.28,46.56,160-81.48,168.78-107.67-43.65-221.16-32-131,39.8-200.79,33-116.4-67.92-195-53.37-125.13,46.56-139.68-49.47,8.73-232.8,37.83-270.63,29.1-285.18-8.73-325.92S584.52,584.52,628.17,558.33Z"/></svg>