<svg width="138" height="128" viewBox="0 0 138 128" fill="none" xmlns="http://www.w3.org/2000/svg">
<g id="Group 23">
<path id="Vector 19" d="M35.1692 127.328C-32.5916 29.4819 12.9427 19.0557 44.1799 26.0734L57.9964 104.27L61 118.806L35.1692 127.328Z" fill="#414141"/>
<path id="Vector 20" d="M108.434 105.081C110.186 -13.6435 66.7847 2.7335 44.8649 25.7625L76.7927 98.4498L82.3685 112.202L108.434 105.081Z" fill="#414141"/>
<ellipse id="Ellipse 3" cx="60" cy="65.8279" rx="44" ry="41.5" fill="#D19471"/>
<circle id="Ellipse 12" cx="60.5" cy="72.8279" r="2.5" fill="#A9765A"/>
<path id="Vector 5" d="M72 81.5599C76.8708 82.1109 86.975 79.9756 88.4258 67.0275" stroke="#3A3A3A"/>
<path id="Vector 21" d="M47.9812 32.0952L45.6706 26C-19.95 55.2571 25.2604 102.19 56.0683 122L63 119.46C51.2545 112.857 26.7238 93.8603 22.5647 70.6984C18.4057 47.5365 37.7761 35.3122 47.9812 32.0952Z" fill="#3A3A3A"/>
<path id="Vector 22" d="M47.0011 32.6011L44.9308 26.443C114.547 6.56163 109.157 71.6499 97.7605 106.679L90.7562 109.201C95.7036 96.5735 102.733 66.2122 91.2706 45.79C79.8084 25.3677 56.9816 28.4881 47.0011 32.6011Z" fill="#3A3A3A"/>
</g>
</svg>
