<svg width="150" height="133" viewBox="0 0 150 133" fill="none" xmlns="http://www.w3.org/2000/svg">
<g id="Group 29">
<path id="Vector 23" d="M47.1692 132.328C-20.5916 34.4819 24.9427 24.0557 56.1799 31.0734L69.9964 109.27L73 123.806L47.1692 132.328Z" fill="#624332"/>
<path id="Vector 24" d="M120.434 110.081C122.186 -8.64349 78.7847 7.7335 56.8649 30.7625L88.7927 103.45L94.3685 117.202L120.434 110.081Z" fill="#624332"/>
<ellipse id="Ellipse 1" rx="44" ry="41.5" transform="matrix(-1 0 0 1 68 69.5)" fill="#CB9F86"/>
<path id="Vector 3" d="M87 81C85.5 85.6667 79.4 94 67 90" stroke="#3A3A3A"/>
<circle id="Ellipse 10" r="2.5" transform="matrix(-1 0 0 1 67.5 74.5)" fill="#BC886B"/>
<path id="Vector 25" d="M56.6187 29.8237C66.8209 37.4294 91.542 50.1134 108.809 40.0033C99.9806 24.2621 77.1831 0.188473 56.6187 29.8237C35.4165 14.1838 19.6813 54.5388 14.464 76.6713L25.5011 69.2863C35.6648 65.3721 50.4811 41.3469 56.6187 29.8237Z" fill="#322C29"/>
</g>
</svg>
