<svg width="94" height="100" viewBox="0 0 94 100" fill="none" xmlns="http://www.w3.org/2000/svg">
<g id="Group 31">
<ellipse id="Ellipse 3" cx="50" cy="58.5" rx="44" ry="41.5" fill="#A9765A"/>
<circle id="Ellipse 12" cx="50.5" cy="65.5" r="2.5" fill="#865C45"/>
<path id="Vector 5" d="M62 74.2321C66.8708 74.783 76.975 72.6478 78.4258 59.6996" stroke="#3A3A3A"/>
<g id="Group 30">
<ellipse id="Ellipse 13" cx="25.5" cy="25.5" rx="12.5" ry="11.5" fill="#322C29"/>
<ellipse id="Ellipse 17" cx="15.5" cy="20.5" rx="12.5" ry="11.5" fill="#322C29"/>
<ellipse id="Ellipse 18" cx="35.5" cy="14.5" rx="12.5" ry="11.5" fill="#322C29"/>
<ellipse id="Ellipse 19" cx="54.5" cy="11.5" rx="12.5" ry="11.5" fill="#322C29"/>
<ellipse id="Ellipse 14" cx="44.5" cy="20.5" rx="12.5" ry="11.5" fill="#322C29"/>
<ellipse id="Ellipse 15" cx="12.5" cy="34.5" rx="12.5" ry="11.5" fill="#322C29"/>
<ellipse id="Ellipse 16" cx="66.5" cy="20.5" rx="12.5" ry="11.5" fill="#322C29"/>
<g id="Vector 8">
<path d="M90 41.5L78.5 16.5L69.5 28L90 41.5Z" fill="#322C29"/>
<path d="M0.5 37.5L11.5 45L7.5 70.5L0.5 37.5Z" fill="#322C29"/>
</g>
</g>
</g>
</svg>
