<svg width="138" height="128" viewBox="0 0 138 128" fill="none" xmlns="http://www.w3.org/2000/svg">
<g id="Group 28">
<path id="Vector 12" d="M35.1692 127.328C-32.5916 29.4819 12.9427 19.0557 44.1799 26.0734L57.9964 104.27L61 118.806L35.1692 127.328Z" fill="#624332"/>
<path id="Vector 13" d="M108.434 105.081C110.186 -13.6435 66.7847 2.7335 44.8649 25.7625L76.7927 98.4498L82.3685 112.202L108.434 105.081Z" fill="#624332"/>
<ellipse id="Ellipse 3" cx="60" cy="65.8279" rx="44" ry="41.5" fill="#D19471"/>
<circle id="Ellipse 12" cx="60.5" cy="72.8279" r="2.5" fill="#A9765A"/>
<path id="Vector 5" d="M72 81.56C76.8708 82.1109 86.975 79.9757 88.4258 67.0275" stroke="#3A3A3A"/>
<path id="Vector 14" d="M46.4999 32.3279L44.4999 26.3279C-12.3002 55.1279 26.8332 101.328 53.4999 120.828L59.4999 118.328C49.3333 111.828 28.0999 93.1279 24.4999 70.3279C20.8999 47.5279 37.6666 35.4945 46.4999 32.3279Z" fill="#C8A855"/>
<path id="Vector 15" d="M47.2943 32.955L45.2439 26.821C114.765 6.82438 109.222 71.7279 97.7605 106.679L90.7645 109.211C95.7334 96.6095 102.825 66.323 91.438 45.9919C80.0512 25.6609 57.2644 28.8294 47.2943 32.955Z" fill="#C8A855"/>
</g>
</svg>
